<svg width="579.9999999999999" height="400" xmlns="http://www.w3.org/2000/svg">
 <!-- Created with Method Draw - http://github.com/duopixel/Method-Draw/ -->
 <g>
  <title>background</title>
  <rect fill="#fff" id="canvas_background" height="402" width="582" y="-1" x="-1"/>
  <g display="none" overflow="visible" y="0" x="0" height="100%" width="100%" id="canvasGrid">
   <rect fill="url(#gridpattern)" stroke-width="0" y="0" x="0" height="100%" width="100%"/>
  </g>
 </g>
 <g>
  <title>Layer 1</title>
  <path fill-opacity="0" stroke="#ffffff" id="svg_1" d="m325.0075,155.91047c2.62815,-53.07824 152.13843,1 0,118.67203c-158.13842,-115.67203 3.37186,-175.75027 0,-118.67203z" stroke-width="10" fill="#000000"/>
  <path stroke="#ffffff" transform="rotate(1.8735523223876953 327.1850891113279,140.9147338867189) " id="svg_3" d="m327.185108,134.269278c19.217897,-15.131168 94.514247,0 0,19.454359c-94.514247,-19.454359 -19.217897,-34.585527 0,-19.454359z" stroke-width="10.5" fill="#ffffff"/>
  <ellipse stroke="#000000" stroke-opacity="0" ry="8.231086" rx="4.20664" id="svg_25" cy="345.456275" cx="393.03141" stroke-width="10.5" fill="#ffffff"/>
  <ellipse stroke="#ffffff" ry="4.195574" rx="2.622232" id="svg_28" cy="185.839934" cx="325.662376" stroke-opacity="null" stroke-width="10.5" fill="#ffffff"/>
  <ellipse stroke="#ffffff" ry="4.195574" rx="2.622232" id="svg_29" cy="172.204319" cx="287.902209" stroke-opacity="null" stroke-width="10.5" fill="#ffffff"/>
  <ellipse stroke="#ffffff" ry="4.195574" rx="2.622232" id="svg_30" cy="174.302104" cx="366.569228" stroke-opacity="null" stroke-width="10.5" fill="#ffffff"/>
  <ellipse stroke="#ffffff" ry="4.195574" rx="2.622232" id="svg_31" cy="212.062274" cx="298.391143" stroke-opacity="null" stroke-width="10.5" fill="#ffffff"/>
  <ellipse stroke="#ffffff" ry="4.195574" rx="2.622232" id="svg_32" cy="209.964486" cx="357.129184" stroke-opacity="null" stroke-width="10.5" fill="#ffffff"/>
  <ellipse stroke="#ffffff" ry="4.195574" rx="2.622232" id="svg_34" cy="235.137932" cx="328.809057" stroke-opacity="null" stroke-width="10.5" fill="#ffffff"/>
 </g>
</svg>